<?xml version="1.0" encoding="utf-8"?>
<svg xmlns="http://www.w3.org/2000/svg" xmlns:xlink="http://www.w3.org/1999/xlink" width="710" height="580" viewBox="0 0 710 580"><defs><linearGradient id="c" x1="-4.082" y1="1.298" x2="-4.08" y2="1.297" gradientUnits="objectBoundingBox"><stop offset="0" stop-color="#213871"/><stop offset="1" stop-color="#0e1d42"/></linearGradient><linearGradient id="d" y1=".5" x2="1" y2=".5" gradientUnits="objectBoundingBox"><stop offset="0" stop-color="#0091e3"/><stop offset="1" stop-color="#0077d3"/></linearGradient><linearGradient id="a" y1=".5" x2="1" y2=".5" gradientUnits="objectBoundingBox"><stop offset="0" stop-color="#0098d3"/><stop offset="1" stop-color="#00bfff"/></linearGradient><linearGradient id="e" x1="28.662" y1="61.502" x2="29.816" y2="61.502" xlink:href="#a"/><linearGradient id="b" x1="8.424" y1=".5" x2="9.424" y2=".5" gradientUnits="objectBoundingBox"><stop offset="0" stop-color="#000f1c"/><stop offset="1" stop-color="#012a45"/></linearGradient><linearGradient id="f" x1="12.037" y1=".5" x2="13.037" y2=".5" xlink:href="#b"/><linearGradient id="g" x1="8.704" y1=".5" x2="9.704" y2=".5" xlink:href="#b"/><linearGradient id="h" x1="6.07" y1=".5" x2="7.07" y2=".5" xlink:href="#b"/><linearGradient id="i" x1="-329.42" y1="-10.954" x2="-329.168" y2="-11.926" gradientUnits="objectBoundingBox"><stop offset="0" stop-color="#012a45"/><stop offset="1" stop-color="#000f1c"/></linearGradient></defs><path data-name="Rectangle 249" fill="none" d="M0 0h710v580H0z"/><g data-name="Group 1395"><g data-name="Group 48"><g data-name="Group 47" fill-rule="evenodd"><path data-name="Path 112" d="M8.558 402.648a12.813 12.813 0 010-3.169v-17.3l5.508 8.4c.224-.149.385-.346.624-.483l365.479-211.013a50.571 50.571 0 0150.568 0l264.565 152.752c.162.094.271.23.427.33l5.908-8.09v21.957l-.527.279a12.439 12.439 0 01-5.809 7.471L329.829 564.795a50.566 50.566 0 01-50.566 0L14.697 412.048a12.406 12.406 0 01-6.069-8.831l-.07-.026z" fill="#a1f7ff"/><path data-name="Path 113" d="M3610.825 414.84l-365.471 211.01a12.671 12.671 0 000 21.947l264.565 152.753a50.566 50.566 0 0050.565 0l365.474-211.013a12.671 12.671 0 000-21.947l-264.564-152.75a50.571 50.571 0 00-50.569 0z" transform="translate(-3230.656 -252.493)" fill="url(#c)"/></g><path data-name="Path 114" d="M314.402 518.968a44.135 44.135 0 01-22.083-5.9L71.859 385.782a12.578 12.578 0 010-21.784l304.549-175.837a44.277 44.277 0 0144.159 0L641.03 315.447a12.575 12.575 0 010 21.785L336.481 513.07a44.164 44.164 0 01-22.079 5.898zm64.025-327.313L73.877 367.492a8.545 8.545 0 000 14.8L294.34 509.577a40.261 40.261 0 0040.122 0l304.549-175.832a8.544 8.544 0 000-14.8l-220.463-127.29a40.257 40.257 0 00-40.122 0z" fill="#a1f7ff"/></g><g data-name="Group 1106" transform="translate(148.904 8.432)"><ellipse data-name="Ellipse 8" cx="36.797" cy="21.245" rx="36.797" ry="21.245" transform="rotate(-59.999 287.64 -161.626)" fill="#fff" style="mix-blend-mode:soft-light;isolation:isolate"/><path data-name="Path 2431" d="M354.31 68.924l-63.3 36.545v-60.4l63.3-36.545z" fill="#fff" style="mix-blend-mode:soft-light;isolation:isolate"/><path data-name="Path 2432" d="M269.23 351.718l-140.841 81.317-29.14-16.824 140.84-81.318z" fill="#001b2e" opacity=".27"/><g data-name="Group 1078"><path data-name="Path 2433" d="M242.544.575l-.047-.027a4.228 4.228 0 00-.43-.21c-.027-.011-.057-.018-.085-.03-.048-.018-.1-.034-.145-.051-.074-.026-.146-.057-.222-.079s-.166-.038-.249-.057c-.051-.012-.1-.025-.151-.035-.027-.005-.053-.014-.082-.019a4.97 4.97 0 00-.517-.06h-.159c-.135 0-.269-.01-.408 0-.046 0-.095.011-.142.014-.085.006-.171.016-.258.026s-.158.011-.24.024-.143.032-.213.046a6.716 6.716 0 00-.352.075c-.063.016-.125.023-.189.04s-.128.047-.191.066c-.2.06-.4.13-.6.208-.072.028-.141.044-.213.074-.04.017-.083.044-.123.061a10.267 10.267 0 00-1.076.535l-129.725 74.9c-.276.159-.548.334-.817.519-.088.06-.173.126-.26.189a12.66 12.66 0 00-.83.647q-.246.206-.485.424c-.1.089-.195.179-.291.271-.06.058-.123.111-.182.17s-.12.131-.183.194q-.291.3-.571.608c-.06.067-.124.126-.183.194s-.094.116-.142.173c-.113.133-.223.27-.333.406-.072.09-.148.175-.219.266-.056.074-.11.152-.167.228-.08.106-.159.213-.236.32-.054.075-.112.148-.166.224-.089.128-.173.259-.26.389-.055.082-.112.164-.166.247a1.596 1.596 0 01-.07.1c-.151.238-.3.479-.441.723l-.028.049c-.028.05-.054.1-.083.15-.1.173-.2.346-.291.522-.044.082-.083.165-.125.247s-.089.172-.131.259-.077.147-.112.221c-.1.2-.19.408-.281.613l-.046.1-.014.03q-.166.382-.313.768c-.019.047-.034.1-.052.144-.035.094-.067.188-.1.282-.045.128-.094.255-.137.382-.034.1-.061.2-.093.3-.037.117-.074.235-.108.352-.021.072-.046.144-.066.217-.036.131-.063.263-.1.395s-.075.291-.108.437c-.01.05-.026.1-.037.151-.022.105-.034.21-.054.315-.043.229-.085.458-.117.685-.009.063-.025.126-.033.188s0 .116-.011.174a12.655 12.655 0 00-.1 1.5l.795 280.463a9.661 9.661 0 00.178 1.871 6.807 6.807 0 00.5 1.553 4.764 4.764 0 001.274 1.688 4.029 4.029 0 00.549.382l23.713 13.781c-1.538-.894-2.491-2.794-2.5-5.493l-.8-280.462a12.815 12.815 0 01.1-1.5c.014-.121.026-.242.043-.363.032-.227.073-.454.117-.683.03-.157.056-.312.091-.468s.071-.292.107-.437c.052-.2.1-.408.163-.612l.108-.353q.108-.344.23-.686c.033-.093.065-.186.1-.28.118-.315.243-.629.379-.941l.048-.105a18.526 18.526 0 01.522-1.088q.2-.389.417-.771c.028-.049.054-.1.083-.149q.259-.445.539-.876c.053-.083.11-.165.165-.247.139-.207.28-.411.425-.613q.117-.162.237-.32a18.751 18.751 0 01.719-.895c.113-.128.217-.247.327-.369q.279-.313.571-.608c.121-.123.241-.246.365-.364.095-.092.192-.181.29-.27q.24-.218.485-.424c.1-.081.193-.163.292-.241.177-.142.357-.276.539-.406.086-.063.172-.129.259-.189.269-.185.541-.36.817-.519l129.726-74.9a10.249 10.249 0 011.076-.535c.113-.049.224-.092.335-.135a7.94 7.94 0 01.979-.314 6.26 6.26 0 01.353-.075c.152-.029.3-.053.451-.069a4.73 4.73 0 01.259-.026 5.275 5.275 0 01.55-.01h.125a4.774 4.774 0 01.633.08c.052.01.1.023.152.035a4.154 4.154 0 01.47.136c.049.017.1.032.146.051a4.063 4.063 0 01.562.267z" fill="#5cc9ee"/><g data-name="Group 1075"><path data-name="Path 2434" d="M3536.178 609.355l-23.714-13.781-.677-238.737 23.715 13.781z" transform="translate(-3413.565 -254.537)" fill="url(#d)"/></g><g data-name="Group 1076"><path data-name="Path 2435" d="M3685.732 275.72l.677 238.737-146.854 84.786-.677-238.737z" transform="translate(-3416.944 -244.425)" fill="url(#a)"/></g><g data-name="Group 1077"><path data-name="Path 2436" d="M260.162 14.953c4.726-2.728 8.576-.542 8.592 4.9l.032 11.446-146.855 84.786.678 238.736 146.853-84.789.086 30.28c.016 5.43-3.811 12.057-8.536 14.785l-129.725 74.9c-4.734 2.733-8.578.535-8.592-4.9l-.8-280.463c-.015-5.439 3.8-12.053 8.536-14.786z" fill="#fff"/></g><path data-name="Path 2437" d="M214.744 333.733l-21.046 12.151c-4.875 2.814-8.863-.2-8.863-6.7s3.989-14.12 8.863-16.934l21.046-12.151c4.875-2.814 8.864.2 8.864 6.7-.001 6.499-3.99 14.118-8.864 16.934z" fill="#90d5f4"/></g><path data-name="Path 2438" d="M356.827 70.346l-63.3 36.545v-60.4l63.3-36.545z" fill="#fff" style="mix-blend-mode:soft-light;isolation:isolate"/><path data-name="Path 2439" d="M372.505 230.25l-63.3 36.545v-60.4l63.3-36.545z" fill="#fff" style="mix-blend-mode:soft-light;isolation:isolate"/><path data-name="Path 2440" d="M375.022 231.673l-63.3 36.545v-60.4l63.3-36.545z" fill="#fff" style="mix-blend-mode:soft-light;isolation:isolate"/><path data-name="Path 2441" d="M88.361 365.463l-63.3 36.545v-60.4l63.3-36.545z" fill="#fff" style="mix-blend-mode:soft-light;isolation:isolate"/><path data-name="Path 2442" d="M90.877 366.881l-63.3 36.545v-60.4l63.3-36.545z" fill="#fff" style="mix-blend-mode:soft-light;isolation:isolate"/><g data-name="Group 1079" style="mix-blend-mode:overlay;isolation:isolate" fill="#5cc9ee"><path data-name="Path 2443" d="M330.935 41.109a11.749 11.749 0 00.758-3.955c0-4.153-2.915-5.837-6.512-3.759a14.393 14.393 0 00-6.512 11.279 5.766 5.766 0 00.758 3.079 30.505 30.505 0 00-7.054 14.574c2.921 2.815 7.563 3.06 12.809.032s9.889-8.634 12.81-14.822c-.827-4.153-3.486-6.464-7.057-6.428z"/><path data-name="Path 2444" d="M339.454 63.162l-28.553 16.481v-4.96l28.554-16.485z"/><path data-name="Path 2445" d="M339.454 71.039l-28.553 16.482v-4.96l28.554-16.485z"/></g><g data-name="Group 1082"><path data-name="Path 2446" d="M82.767 197.942l-63.3 36.545v-60.4l63.3-36.545z" fill="#fff" style="mix-blend-mode:soft-light;isolation:isolate"/><path data-name="Path 2447" d="M85.325 199.478l-63.3 36.545v-60.399l63.3-36.545z" fill="#fff" style="mix-blend-mode:soft-light;isolation:isolate"/><path data-name="Path 2448" d="M74.46 182.729l-41.567 24v-7.221l41.567-24z" fill="#5cc9ee"/><path data-name="Path 2449" d="M74.46 194.198l-41.567 24v-7.221l41.567-24z" fill="#5cc9ee"/><g data-name="Group 1080" fill="#fff"><path data-name="Rectangle 228" d="M39.149 199.505l1.735-3.005 1.735 1.001-1.735 3.005z"/><path data-name="Rectangle 229" d="M44.266 196.551l1.735-3.005 1.735 1.001L46 197.553z"/><path data-name="Rectangle 230" d="M49.383 193.597l1.735-3.005 1.735 1.001-1.735 3.006z"/><path data-name="Rectangle 231" d="M54.5 190.642l1.735-3.005 1.735 1.001-1.735 3.006z"/><path data-name="Rectangle 232" d="M59.617 187.688l1.735-3.005 1.735 1.001-1.735 3.006z"/><path data-name="Rectangle 233" d="M64.733 184.734l1.735-3.005 1.735 1.001-1.735 3.006z"/></g><g data-name="Group 1081" fill="#fff"><path data-name="Rectangle 234" d="M39.149 210.973l1.735-3.005 1.735 1.001-1.735 3.005z"/><path data-name="Rectangle 235" d="M44.266 208.019l1.735-3.005 1.735 1.001L46 209.02z"/><path data-name="Rectangle 236" d="M49.383 205.065l1.735-3.005 1.735 1.001-1.735 3.005z"/><path data-name="Rectangle 237" d="M54.5 202.11l1.735-3.005 1.735 1.001-1.735 3.005z"/><path data-name="Rectangle 238" d="M59.617 199.156l1.735-3.005 1.735 1.001-1.735 3.005z"/><path data-name="Rectangle 239" d="M64.733 196.202l1.735-3.005 1.735 1.001-1.735 3.005z"/></g><path data-name="Path 2450" d="M62.791 155.699c-4.011 6.948-8.291 6.264-8.291 6.264s-4.28 5.626-8.29 3.31c0 0-5.393 19.889 8.29 18.972 13.682-14.883 8.291-28.546 8.291-28.546z" fill="#5cc9ee"/><path data-name="Path 2451" d="M3467.464 421.494c-3.241 5.615-6.7 5.062-6.7 5.062s-3.459 4.547-6.7 2.675c0 0-4.358 16.075 6.7 15.333 11.058-12.028 6.7-23.07 6.7-23.07z" transform="translate(-3406.263 -262.598)" fill="url(#e)"/><path data-name="Path 2452" d="M59.724 161.865c-2.528 4.378-5.225 3.946-5.225 3.946s-2.7 3.545-5.223 2.086c0 0-3.4 12.531 5.223 11.953 8.623-9.377 5.225-17.985 5.225-17.985z" fill="#5cc9ee"/></g><ellipse data-name="Ellipse 9" cx="36.797" cy="21.245" rx="36.797" ry="21.245" transform="rotate(-60 291.62 -164.758)" fill="#fff" style="mix-blend-mode:soft-light;isolation:isolate"/><g data-name="Group 1085" style="mix-blend-mode:overlay;isolation:isolate"><path data-name="Path 2453" d="M327.775 132.169l-7.579 4.376c-6.069 3.5-10.989 12.025-10.989 19.034 0 7.008 4.92 9.848 10.989 6.344l7.579-4.376a18.564 18.564 0 003.843-3.016l7.146 2.672v-18.69c0-7.007-4.92-9.848-10.989-6.344z" fill="#5cc9ee"/><g data-name="Group 1084"><g data-name="Group 1083" fill="#fff"><path data-name="Path 2454" d="M314.072 152.431a5.594 5.594 0 012.531-4.383c1.4-.807 2.531-.153 2.531 1.461a5.6 5.6 0 01-2.531 4.384c-1.398.802-2.531.152-2.531-1.462z"/><path data-name="Path 2455" d="M320.327 148.82a5.592 5.592 0 012.532-4.383c1.4-.807 2.53-.153 2.53 1.461a5.593 5.593 0 01-2.53 4.384c-1.399.806-2.532.152-2.532-1.462z"/><path data-name="Path 2456" d="M326.583 145.208a5.592 5.592 0 012.531-4.383c1.4-.807 2.531-.153 2.531 1.461a5.594 5.594 0 01-2.531 4.384c-1.398.806-2.531.154-2.531-1.462z"/></g></g></g><g data-name="Group 1090" transform="translate(0 234.464)"><ellipse data-name="Ellipse 10" cx="36.797" cy="21.245" rx="36.797" ry="21.245" transform="rotate(-59.999 55.196 31.867)" fill="#fff" style="mix-blend-mode:soft-light;isolation:isolate"/><ellipse data-name="Ellipse 11" cx="36.797" cy="21.245" rx="36.797" ry="21.245" transform="rotate(-60 59.17 28.73)" fill="#fff" style="mix-blend-mode:soft-light;isolation:isolate"/><g data-name="Group 1089" style="mix-blend-mode:overlay;isolation:isolate"><path data-name="Path 2457" d="M54.634 47.51L28.369 62.674V41.213l26.265-15.164z" fill="#fff"/><g data-name="Group 1086"><path data-name="Path 2458" d="M55.228 47.853l-27.452 15.85V40.871l27.452-15.85zm-26.26 13.794l25.078-14.479v-20.09L28.968 41.556z" fill="#8ab6db"/></g><g data-name="Group 1087"><path data-name="Path 2459" d="M27.826 40.898v3.4l13.834 3.317 13.518-18.85V26.75L41.661 45.606l-13.519-3.241 27.037-15.61V25.11z" fill="#8ab6db"/></g><g data-name="Group 1088"><path data-name="Path 2460" d="M41.502 41.509L27.775 62.7v1l27.452-15.85v-1.007zm-11.5 19.536l11.5-17.75 11.5 4.474z" fill="#8ab6db"/></g><path data-name="Path 2461" d="M32.946 43.518l8.714 2.089 9.094-12.682z" fill="#fff"/></g></g><path data-name="Path 2462" d="M332.668 218.97l-14.072 8.124v-9.915l14.072-8.124z" fill="#5cc9ee"/><path data-name="Path 2463" d="M49.543 350.376L35.471 358.5v-9.915l14.072-8.124z" fill="#5cc9ee"/><path data-name="Path 2464" d="M49.543 361.488l-14.072 8.124v-4.222l14.072-8.124z" fill="#5cc9ee"/><path data-name="Path 2465" d="M81.965 326.885l-19.148 11.078v-2.328l19.148-11.078z" fill="#5cc9ee"/><path data-name="Path 2466" d="M81.965 332.429l-19.148 11.078v-2.328l19.148-11.078z" fill="#5cc9ee"/><path data-name="Path 2467" d="M81.965 337.973l-19.148 11.078v-2.328l19.148-11.078z" fill="#5cc9ee"/><path data-name="Path 2468" d="M81.965 343.516l-19.148 11.078v-2.328l19.148-11.078z" fill="#5cc9ee"/><path data-name="Path 2469" d="M81.965 349.06l-19.148 11.078v-2.328l19.148-11.078z" fill="#5cc9ee"/><path data-name="Path 2470" d="M81.965 354.604l-19.148 11.079v-2.328l19.148-11.079z" fill="#5cc9ee"/><path data-name="Path 2471" d="M81.965 360.147l-19.148 11.078v-2.328l19.148-11.078z" fill="#5cc9ee"/><path data-name="Path 2472" d="M49.543 374.505l-14.072 8.124v-4.222l14.072-8.124z" fill="#5cc9ee"/><path data-name="Path 2473" d="M363.346 188.512l-14.071 8.124v-4.62l14.071-8.124z" fill="#5cc9ee"/><path data-name="Path 2474" d="M347.986 235.559l-29.39 17.042v-1.781l29.39-17.042z" fill="#5cc9ee"/><g data-name="Group 1091" fill="#5cc9ee"><path data-name="Path 2475" d="M328.335 240.225l-9.739 5.623v-4.058l9.739-5.623z"/><path data-name="Path 2476" d="M341.543 232.599l-9.739 5.623v-4.058l9.739-5.623z"/><path data-name="Path 2477" d="M354.752 224.969l-9.739 5.623v-4.058l9.739-5.623z"/><path data-name="Path 2478" d="M367.96 217.347l-9.739 5.623v-4.058l9.739-5.623z"/></g><g data-name="Group 1094"><g data-name="Group 1092"><path data-name="Path 2479" d="M235.694 256.235c-54.1-5.159-93.916-50.816-89.041-101.917a4.872 4.872 0 014.37-4.294l22.392-2.7a5.227 5.227 0 015.557 3.349l7.993 23.314a4.64 4.64 0 01-1.992 5.447l-13.723 8.679a76.544 76.544 0 0034 38.92l11.616-11.095a5.272 5.272 0 016.037-.813l22.711 11.831a4.779 4.779 0 012.407 5.767l-7.041 20.268a5.027 5.027 0 01-5.286 3.244z" fill="#fff"/></g><g data-name="Group 1093"><path data-name="Path 2480" d="M247.738 162.727a52.464 52.464 0 01-4.828 13.971c-.347.694-.927 1.1-1.406 1l-4.156-.918a37.3 37.3 0 01-5.726 7.224l.133 6.042a2.535 2.535 0 01-.877 1.908 26.659 26.659 0 01-10.592 5.389c-.536.122-.923-.295-.931-.993l-.077-6.088a10.366 10.366 0 01-5.926-1.34l-4.105 5.122c-.465.583-1.067.763-1.439.443a18.172 18.172 0 01-5.319-8.951 2.4 2.4 0 01.531-1.974l4.088-5.041a28.9 28.9 0 01-.03-8.429l-4.066-.9c-.468-.1-.687-.68-.524-1.4a53.106 53.106 0 015.156-13.707c.357-.666.929-1.055 1.394-.96l4.019.872a36.476 36.476 0 015.665-6.908l-.071-5.651a2.348 2.348 0 01.857-1.769 26.226 26.226 0 0110.139-5.023c.512-.118.885.261.9.895l.124 5.6a10.424 10.424 0 015.757 1.209l3.881-4.785c.437-.54 1.013-.712 1.381-.42a17.429 17.429 0 015.441 8.32 2.181 2.181 0 01-.458 1.878l-3.894 4.857a27.655 27.655 0 01.257 8.246l4.117.887c.471.089.704.67.585 1.394zm-15.093-1.275c-.12-5.192-3.589-7.7-7.739-5.628s-7.5 8.007-7.439 13.247c.06 5.283 3.55 7.879 7.768 5.752s7.531-8.138 7.409-13.372z" fill="#fff"/></g></g><g data-name="Group 1105"><path data-name="Path 2481" d="M240.171 241.925l-1.739-.867a36.253 36.253 0 01-4.684.465c-.341-.17-5.545-1.438-5.545-1.438a1.208 1.208 0 011.148-1.492 9.3 9.3 0 012.083-.2s-7.934-5.485-7.284-6.751c.887-1.727 5.139 1.868 5.139 1.868a1.592 1.592 0 011.811-.888 1.978 1.978 0 012.279-1.118s.6-.86 2.329-.186 5.926 4.3 5.926 4.3l2.168 1.418z" fill="#efb387"/><path data-name="Path 2482" d="M3673.716 515.576l32.846 21.117 7.032-10.16-36.027-16.083z" transform="translate(-3433.753 -273.688)" fill="url(#b)"/><path data-name="Path 2483" d="M272.313 426.966h-7.173l-5.014-1.311-8.55 1.543-6.851-2.134.411-4.582 13.382-2.04 13.54-.144z" fill="#001829"/><path data-name="Path 2484" d="M263.115 430.43h-7.173l-5.014-1.311-8.55 1.543-6.851-2.134.411-4.582 13.383-2.04 13.54-.144z" fill="#001829"/><path data-name="Path 2485" d="M3719.486 605.931l1.182 11.471-6.267 30.037 2.6 19.512-8.632 41.389-10.406-1.537-5.2-90.11z" transform="translate(-3436.127 -285.592)" fill="url(#f)"/><path data-name="Path 2486" d="M3671.517 609.924l-1.183 17.147 11.038 37.841 1.281 43.031 13.54-.144.573-69.971.051-6.227 8.828-7.032 3.283-15.067z" transform="translate(-3433.332 -286.037)" fill="url(#g)"/><path data-name="Path 2487" d="M3681.737 542.29l11.471-9.7 17.857-6.5 13.244 4.967 2.72 14.545-8.4 31.1-1.774 19.275-26.726 10.761-18.448-7.214 8.041-23.887z" transform="translate(-3433.5 -275.638)" fill="url(#h)"/><g data-name="Group 1095"><path data-name="Path 2488" d="M254.576 229.327l-.86 3.185.43 1.46-1.1 2.769 2.769 13.265 1.852.692 1.759.206 4.4-6.885.636-7.8-6.941-3.48z" fill="#efb387"/><path data-name="Path 2489" d="M259.365 249.164l-.224 8.606s5.575.973 8.682.225 9.468-4.6 9.468-4.6l-.712-8.718-14.594-1.46z" fill="#efb387"/><path data-name="Path 2490" d="M280.284 230.7l-3.375 16.617-12.454 5.386-4.881-5.955 1.679-3.871-1.589-2.03-.036-.045-2.434 2.227-1.868-1.482 1.5-5.739-1.688-1.392-2.283-3.427.915-3.222 8.507-4.48h5.051z" fill="#915236"/><path data-name="Path 2491" d="M280.284 230.7l-3.375 16.617-12.455 5.386-4.881-5.955 1.679-3.871-1.59-2.03.637-2.91z" fill="#713e23"/></g><g data-name="Group 1096"><path data-name="Path 2492" d="M239.339 346.335l.986 27.8-27.858-14.788-.886-24.977 25.191 10.6 2.4 1.277z" fill="#6e3816"/><path data-name="Path 2493" d="M240.326 374.133l2.157-.076-.57-3.32-3.123-.454z" fill="#6e3816"/><path data-name="Path 2494" d="M246.637 344.865a3.556 3.556 0 01-1.819 2.306 10.262 10.262 0 01-5.4 1.275l.056 1.61.224 6.32.313 8.8.224 6.319c.116 3.285 3.206 3.451 5.562.3a8.08 8.08 0 001.678-4.828l-.224-6.319-.312-8.8-.224-6.32a4.466 4.466 0 00-.078-.663z" fill="#783c19"/><path data-name="Path 2495" d="M244.818 347.17a3.555 3.555 0 001.819-2.306c-.49-2.625-3.3-2.56-5.486.362a8.736 8.736 0 00-1.486 3.226 9.391 9.391 0 005.153-1.282z" fill="#783c19"/><path data-name="Path 2496" d="M245.231 342.548l-24.652-13.081c-2.076-1.108-5.646-.836-7.945.607a3.675 3.675 0 00-1.862 2.551 23.636 23.636 0 001.08 9.384c6.372 12.815 20.814 19.274 25.808 11.6 0 0 2.817-7.481 3.5-8.385 2.174-2.922 4.992-2.986 5.482-.363a2.234 2.234 0 00-1.411-2.313zm-11.237 3.711l2.879 1.528z" fill="#9e481d"/><path data-name="Path 2497" d="M220.419 353.301c-.067-1.9 1.241-2.721 2.922-1.828a6.6 6.6 0 013.166 5.061c.067 1.9-1.24 2.72-2.922 1.828a6.6 6.6 0 01-3.166-5.061z" fill="#e9ac23"/></g><g data-name="Group 1104"><g data-name="Group 1103" style="isolation:isolate"><g data-name="Group 1097"><path data-name="Path 2498" d="M224.631 331.777l1.264-.8.155 4.752-1.265.8z" fill="#7a3816"/></g><g data-name="Group 1099"><g data-name="Group 1098"><path data-name="Path 2499" d="M222.743 328.68l1.265-.8 12.97 6.887-1.265.8z" fill="#9e481d"/></g></g><g data-name="Group 1101"><g data-name="Group 1100"><path data-name="Path 2500" d="M235.713 335.566l.225 6.883-1.821-.967-.155-4.752-9.329-4.954.155 4.752-1.82-.967-.225-6.883z" fill="#783c19"/></g></g><g data-name="Group 1102"><path data-name="Path 2501" d="M235.713 335.566l1.264-.8.225 6.883-1.264.8z" fill="#9e481d"/></g></g></g><path data-name="Path 2502" d="M236.35 327.002l-.241 2.967s-.457 4.631-1.146 5.621c-.518.742-1.975 1.746-2.74 1.256 0 0-.421.182-2-.739a2.2 2.2 0 01-2.382-.117 1.881 1.881 0 01-1.749-.941 14.661 14.661 0 01.105-2.041c.125-.777-1.125-.045-1.125-.045l-.93-.175a3.636 3.636 0 01-.209-2.084c.356-2.781 3.695-4.212 3.695-4.212l.9-.987z" fill="#efb387"/><path data-name="Path 2503" d="M3680.28 544.544s3.182 26.237 2.173 33.466-13.593 27.421-13.593 27.421l-9.074-1.971 8.121-28.706 3.584-13.948z" transform="translate(-3432.016 -277.939)" fill="url(#i)"/></g></g></g></svg>